# xmcd CD database file
#
# Track frame offsets:
#	150
#	47036
#	103160
#	152850
#
# Disc length: 2850 seconds
#
# Revision: 0
# Processed by: cddbd v1.4PL0 Copyright (c) Steve Scherf et al.
# Submitted via: CDex 1.51
#
DISCID=2e0b2004
DTITLE=Mal Waldron, Reggie Workman, Billy Higgins - Up Popped The Devil
DYEAR=1973
DGENRE=Jazz
TTITLE0=Up Popped The Devil
TTITLE1=Space Walk
TTITLE2=Snake Out
TTITLE3=Changachangachanga
EXTD=YEAR: 1973
EXTT0=
EXTT1=
EXTT2=
EXTT3=
PLAYORDER=
